<svg xmlns="http://www.w3.org/2000/svg" viewBox="0 0 98.4 53.48"><defs><style>.cls-1{fill:#dcdcdc;}</style></defs><title>Asset 1</title><g id="Layer_2" data-name="Layer 2"><g id="Layer_2_copy" data-name="Layer 2 copy"><polygon class="cls-1" points="33.32 38.88 18.72 53.48 0 53.48 0 43.26 18.85 24.41 33.32 38.88"/><polygon class="cls-1" points="33.57 0 0 33.57 0 0 33.57 0"/><polygon class="cls-1" points="23.63 19.63 42.95 0.31 42.64 0 72.31 0 57.48 14.83 57.43 14.78 38.11 34.1 23.63 19.63"/><polygon class="cls-1" points="76.3 34.65 57.47 53.48 28.42 53.48 42.45 39.45 42.5 39.5 61.82 20.18 76.3 34.65"/><polygon class="cls-1" points="98.4 0 98.4 12.55 81.08 29.87 66.61 15.39 82.01 0 98.4 0"/><polygon class="cls-1" points="67.15 53.48 98.4 22.23 98.4 53.48 67.15 53.48"/><path class="cls-1" d="M28.42,53.48h-9.7M0,43.26V33.57"/></g></g></svg>