<?xml version="1.0" encoding="iso-8859-1"?>
<!-- Generator: Adobe Illustrator 19.0.0, SVG Export Plug-In . SVG Version: 6.00 Build 0)  -->
<svg xmlns="http://www.w3.org/2000/svg" xmlns:xlink="http://www.w3.org/1999/xlink" version="1.1" id="Layer_1" x="0px" y="0px" viewBox="0 0 512 512" style="enable-background:new 0 0 512 512;" xml:space="preserve" width="512px" height="512px">
<g>
	<g>
		<path d="M440.546,294.916c-16.222-16.946-37.991-28.699-61.911-33.609l1.468-19.745c0.497-6.686-1.833-13.339-6.395-18.252    c-4.561-4.914-11.023-7.732-17.727-7.732h-47.632l11.772-88.288c2.471-18.524-3.173-37.211-15.483-51.271    c-12.31-14.061-30.088-22.125-48.776-22.125h-67.775C184.11,23.527,158.085,0,126.652,0C92.476,0,64.673,27.803,64.673,61.979    s27.803,61.979,61.979,61.979h77.995c25.105,0,45.919,18.837,48.417,43.816l4.78,47.805H67.305    c-6.704,0-13.165,2.818-17.727,7.732c-4.562,4.913-6.893,11.565-6.395,18.252l18.099,243.398    C62.409,500.122,75.203,512,90.408,512h242.47c15.205,0,27.998-11.878,29.126-27.04l1.226-16.486    c27.412-2.167,52.877-13.005,72.353-30.94c21.475-19.777,33.302-45.967,33.302-73.744    C468.883,338.464,458.82,314.005,440.546,294.916z M374.335,319.13c22.131,7.104,37.42,24.836,37.42,44.659    c0,21.994-18.778,41.07-44.195,46.436L374.335,319.13z M204.647,107.789h-77.995c-25.26,0-45.81-20.55-45.81-45.811    c0-25.26,20.551-45.81,45.81-45.81c25.259,0,45.811,20.55,45.811,45.81c0,4.466,3.62,8.084,8.084,8.084h75.315    c14.027,0,27.371,6.052,36.611,16.606c9.24,10.554,13.476,24.581,11.622,38.484l-12.056,90.426h-17.943l-4.941-49.413    C265.825,132.886,238.094,107.789,204.647,107.789z M363.978,240.363l-2.009,27.023v0.001l-3.048,40.993v0.001l-8.227,110.636    l-3.06,41.151l-0.248,3.326h-59.05c-4.465,0-8.084,3.618-8.084,8.084c0,4.466,3.62,8.084,8.084,8.084h57.847l-0.305,4.098    c-0.503,6.768-6.214,12.07-13.002,12.07H90.408c-6.787,0-12.498-5.302-13.002-12.07l-0.305-4.098H245.22    c4.465,0,8.084-3.618,8.084-8.084c0-4.466-3.62-8.084-8.084-8.084H75.899L59.307,240.362c-0.167-2.25,0.585-4.398,2.12-6.051    c1.535-1.652,3.622-2.563,5.878-2.563h199.442c0.008,0,0.015,0.001,0.023,0.001c0.006,0,0.014-0.001,0.021-0.001h32.32    c0.005,0,0.011,0.001,0.016,0.001c0.008,0,0.015-0.001,0.023-0.001h56.832c2.256,0,4.343,0.911,5.878,2.563    C363.393,235.964,364.145,238.112,363.978,240.363z M364.445,452.128l1.877-25.232c15.711-2.417,30.15-9.088,41.225-19.147    c13.141-11.934,20.378-27.548,20.378-43.96c0-28.06-21.623-52.843-52.362-61.162l1.865-25.083    c44.109,9.809,75.289,44.926,75.289,86.245C452.715,408.943,413.871,447.004,364.445,452.128z" fill="#FFFFFF"/>
	</g>
</g>
<g>
</g>
<g>
</g>
<g>
</g>
<g>
</g>
<g>
</g>
<g>
</g>
<g>
</g>
<g>
</g>
<g>
</g>
<g>
</g>
<g>
</g>
<g>
</g>
<g>
</g>
<g>
</g>
<g>
</g>
</svg>
